<svg width="14" height="16" fill="none" xmlns="http://www.w3.org/2000/svg"><path d="M6.997 0A6.422 6.422 0 0 0 .74 7.832c.097.433.241.859.43 1.265.69 1.627 2.21 4.126 5.544 6.802a.455.455 0 0 0 .57 0c3.33-2.676 4.854-5.175 5.545-6.802a6.25 6.25 0 0 0 .473-1.48c.073-.395.114-.801.114-1.204C13.41 2.878 10.532 0 6.997 0Zm5.407 7.46c0 .007-.004.013-.004.02a7.747 7.747 0 0 1-.03.144v.007a5.32 5.32 0 0 1-.372 1.094c-.003.003-.003.01-.007.013-.627 1.486-2.002 3.753-4.994 6.226-2.992-2.473-4.368-4.74-4.995-6.226C2 8.735 2 8.728 1.995 8.725a5.68 5.68 0 0 1-.372-1.094v-.007c-.02-.077-.027-.127-.03-.144 0-.007-.003-.013-.003-.023A5.516 5.516 0 0 1 6.997.903a5.516 5.516 0 0 1 5.407 6.557Z" fill="#76B926"/><path d="M6.997 2.412a4.078 4.078 0 0 0-4.072 4.072 4.078 4.078 0 0 0 4.072 4.072 4.079 4.079 0 0 0 4.072-4.072 4.078 4.078 0 0 0-4.072-4.072Zm0 7.238A3.17 3.17 0 0 1 3.83 6.484a3.172 3.172 0 0 1 3.167-3.167 3.172 3.172 0 0 1 3.166 3.167A3.17 3.17 0 0 1 6.997 9.65Z" fill="#76B926"/></svg>